GIL03_slow3_ik
nRows=3
nColumns=375

# SIMM Motion File Header:
name GIL03_slow3_ik
datacolumns 375
datarows 3
otherdata 1
range 0.88333000 0.90000000
endheader
time	pelvis_tx	pelvis_ty	pelvis_tz	pelvis_tilt	pelvis_list	pelvis_rotation	hip_flexion_r	hip_adduction_r	hip_rotation_r	knee_angle_r	ankle_angle_r	hip_flexion_l	hip_adduction_l	hip_rotation_l	knee_angle_l	ankle_angle_l	lumbar_extension	lumbar_bending	lumbar_rotation	subtalar_angle_r	mtp_angle_r	subtalar_angle_l	mtp_angle_l	asis_r_px	asis_r_py	asis_r_pz	asis_l_px	asis_l_py	asis_l_pz	midasis_px	midasis_py	midasis_pz	psis_r_px	psis_r_py	psis_r_pz	psis_l_px	psis_l_py	psis_l_pz	hip_r_px	hip_r_py	hip_r_pz	hip_l_px	hip_l_py	hip_l_pz	midhip_px	midhip_py	midhip_pz	epicondLat_r_px	epicondLat_r_py	epicondLat_r_pz	epicondMed_r_px	epicondMed_r_py	epicondMed_r_pz	thighwand_r_px	thighwand_r_py	thighwand_r_pz	upperleg1_r_px	upperleg1_r_py	upperleg1_r_pz	upperleg2_r_px	upperleg2_r_py	upperleg2_r_pz	malleolusLat_r_px	malleolusLat_r_py	malleolusLat_r_pz	malleolusMedv_r_px	malleolusMedv_r_py	malleolusMedv_r_pz	shankwand_r_px	shankwand_r_py	shankwand_r_pz	lowerleg1_r_px	lowerleg1_r_py	lowerleg1_r_pz	knee_r_px	knee_r_py	knee_r_pz	ankle_r_px	ankle_r_py	ankle_r_pz	toe_r_px	toe_r_py	toe_r_pz	epicondLat_l_px	epicondLat_l_py	epicondLat_l_pz	epicondMed_l_px	epicondMed_l_py	epicondMed_l_pz	thighwand_l_px	thighwand_l_py	thighwand_l_pz	upperleg1_l_px	upperleg1_l_py	upperleg1_l_pz	upperleg2_l_px	upperleg2_l_py	upperleg2_l_pz	malleolusLat_l_px	malleolusLat_l_py	malleolusLat_l_pz	malleolusMedv_l_px	malleolusMedv_l_py	malleolusMedv_l_pz	shankwand_l_px	shankwand_l_py	shankwand_l_pz	lowerleg1_l_px	lowerleg1_l_py	lowerleg1_l_pz	knee_l_px	knee_l_py	knee_l_pz	ankle_l_px	ankle_l_py	ankle_l_pz	toe_l_px	toe_l_py	toe_l_pz	subclavicle_r_px	subclavicle_r_py	subclavicle_r_pz	subclavicle_l_px	subclavicle_l_py	subclavicle_l_pz	neck_px	neck_py	neck_pz	sternalnotch_px	sternalnotch_py	sternalnotch_pz	xyphoidprocess_px	xyphoidprocess_py	xyphoidprocess_pz	midhip_tx	midhip_ty	midhip_tz	hip_r_tx	hip_r_ty	hip_r_tz	hip_l_tx	hip_l_ty	hip_l_tz	knee_r_tx	knee_r_ty	knee_r_tz	knee_l_tx	knee_l_ty	knee_l_tz	ankle_r_tx	ankle_r_ty	ankle_r_tz	ankle_l_tx	ankle_l_ty	ankle_l_tz	midasis_tx	midasis_ty	midasis_tz	asis_r_tx	asis_r_ty	asis_r_tz	asis_l_tx	asis_l_ty	asis_l_tz	psis_r_tx	psis_r_ty	psis_r_tz	psis_l_tx	psis_l_ty	psis_l_tz	epicondLat_r_tx	epicondLat_r_ty	epicondLat_r_tz	epicondLat_l_tx	epicondLat_l_ty	epicondLat_l_tz	epicondMed_r_tx	epicondMed_r_ty	epicondMed_r_tz	epicondMed_l_tx	epicondMed_l_ty	epicondMed_l_tz	malleolusLat_r_tx	malleolusLat_r_ty	malleolusLat_r_tz	malleolusLat_l_tx	malleolusLat_l_ty	malleolusLat_l_tz	malleolusMedv_r_tx	malleolusMedv_r_ty	malleolusMedv_r_tz	malleolusMedv_l_tx	malleolusMedv_l_ty	malleolusMedv_l_tz	neck_tx	neck_ty	neck_tz	subclavicle_r_tx	subclavicle_r_ty	subclavicle_r_tz	subclavicle_l_tx	subclavicle_l_ty	subclavicle_l_tz	sternalnotch_tx	sternalnotch_ty	sternalnotch_tz	xyphoidprocess_tx	xyphoidprocess_ty	xyphoidprocess_tz	thighwand_r_tx	thighwand_r_ty	thighwand_r_tz	thighwand_l_tx	thighwand_l_ty	thighwand_l_tz	upperleg1_r_tx	upperleg1_r_ty	upperleg1_r_tz	upperleg1_l_tx	upperleg1_l_ty	upperleg1_l_tz	upperleg2_r_tx	upperleg2_r_ty	upperleg2_r_tz	upperleg2_l_tx	upperleg2_l_ty	upperleg2_l_tz	shankwand_r_tx	shankwand_r_ty	shankwand_r_tz	shankwand_l_tx	shankwand_l_ty	shankwand_l_tz	lowerleg1_r_tx	lowerleg1_r_ty	lowerleg1_r_tz	lowerleg1_l_tx	lowerleg1_l_ty	lowerleg1_l_tz	toe_r_tx	toe_r_ty	toe_r_tz	toe_l_tx	toe_l_ty	toe_l_tz	ground_force_vx	ground_force_vy	ground_force_vz	ground_force_px	ground_force_py	ground_force_pz	ground_force_vx	ground_force_vy	ground_force_vz	ground_force_px	ground_force_py	ground_force_pz	ground_torque_x	ground_torque_y	ground_torque_z	ground_torque_x	ground_torque_y	ground_torque_z	ground_marker_px	ground_marker_py	ground_marker_pz	ground_marker_px	ground_marker_py	ground_marker_pz	ground_marker_px	ground_marker_py	ground_marker_pz	ground_marker_px	ground_marker_py	ground_marker_pz	ground_marker_px	ground_marker_py	ground_marker_pz	ground_marker_px	ground_marker_py	ground_marker_pz	ground_marker_px	ground_marker_py	ground_marker_pz	ground_marker_px	ground_marker_py	ground_marker_pz	ground_marker_px	ground_marker_py	ground_marker_pz	ground_marker_px	ground_marker_py	ground_marker_pz	ground_marker_px	ground_marker_py	ground_marker_pz	ground_marker_px	ground_marker_py	ground_marker_pz	ground_marker_px	ground_marker_py	ground_marker_pz	ground_marker_px	ground_marker_py	ground_marker_pz	ground_marker_px	ground_marker_py	ground_marker_pz	ground_marker_px	ground_marker_py	ground_marker_pz	ground_marker_px	ground_marker_py	ground_marker_pz	ground_marker_px	ground_marker_py	ground_marker_pz	ground_marker_px	ground_marker_py	ground_marker_pz	ground_marker_px	ground_marker_py	ground_marker_pz	ground_marker_px	ground_marker_py	ground_marker_pz	ground_marker_px	ground_marker_py	ground_marker_pz	ground_marker_px	ground_marker_py	ground_marker_pz	ground_marker_px	ground_marker_py	ground_marker_pz	ground_marker_px	ground_marker_py	ground_marker_pz	ground_marker_px	ground_marker_py	ground_marker_pz	ground_marker_px	ground_marker_py	ground_marker_pz	ground_marker_px	ground_marker_py	ground_marker_pz	ground_marker_px	ground_marker_py	ground_marker_pz	ground_marker_px	ground_marker_py	ground_marker_pz	ground_marker_px	ground_marker_py	ground_marker_pz	ground_marker_px	ground_marker_py	ground_marker_pz	ground_marker_px	ground_marker_py	ground_marker_pz	ground_marker_px	ground_marker_py	ground_marker_pz	ground_marker_px	ground_marker_py	ground_marker_pz	ground_marker_px	ground_marker_py	ground_marker_pz	ground_marker_px	ground_marker_py	ground_marker_pz
      0.88333000	      1.17918782	      0.87158669	     -0.19021377	     -1.34882400	      0.68087951	     -4.71070456	    -13.79806772	      0.26043783	     -3.72166983	    -16.13100726	      9.53135296	     22.76557247	      1.24556570	      4.35014269	    -16.84378140	     -2.85079228	     -7.23103468	     -0.28658566	     10.18684457	      0.00000000	      0.00000000	      0.00000000	      0.00000000	      1.22038940	      0.87286459	     -0.09367420	      1.21895314	      0.86921223	     -0.29534466	      1.19018098	      0.87131707	     -0.18930769	      1.07033799	      0.92719509	     -0.16993839	      1.06966885	      0.92692738	     -0.22484003	      1.11702485	      0.82021944	     -0.12982714	      1.12786753	      0.82152333	     -0.26098991	      1.12244619	      0.82087139	     -0.19540852	      1.03276070	      0.43586773	     -0.07819839	      1.02066380	      0.43658680	     -0.18706310	      1.21344426	      0.55766467	     -0.12437914	      1.15442339	      0.62834831	     -0.08240583	      1.11974245	      0.54962052	     -0.08386624	      0.78760354	      0.11053104	     -0.13697125	      0.83284922	      0.10518542	     -0.19462131	      0.83800604	      0.21507620	     -0.05536512	      0.85237095	      0.21822710	     -0.09507356	      1.01778377	      0.45862329	     -0.14344941	      0.81223238	      0.11780852	     -0.17280013	      0.89063551	      0.04273498	     -0.10578394	      1.29272022	      0.46913557	     -0.30195679	      1.26598003	      0.45001987	     -0.19770523	      1.34080668	      0.66431925	     -0.22033664	      1.26921368	      0.68126600	     -0.28971590	      1.29804023	      0.59853320	     -0.28052994	      1.29550591	      0.05829895	     -0.28978950	      1.31247278	      0.07121830	     -0.22526842	      1.24902947	      0.17153978	     -0.35254447	      1.26168311	      0.17847324	     -0.31175486	      1.26225373	      0.47147745	     -0.24529481	      1.29431682	      0.07368811	     -0.24706679	      1.41906806	      0.03452024	     -0.27799155	      1.18913124	      1.26619703	     -0.13744012	      1.18145775	      1.26670327	     -0.24638448	      1.08145878	      1.31532491	     -0.18000907	      1.16923675	      1.27474996	     -0.19597269	      1.25404565	      1.12162041	     -0.20140850	      1.13057900	      0.82915800	     -0.20439200	      1.12469600	      0.80987000	     -0.13931300	      1.12445100	      0.80937200	     -0.25678300	      1.02395000	      0.44674900	     -0.15009000	      1.25786400	      0.46876100	     -0.24243300	      0.81302300	      0.10567300	     -0.17300400	      1.28996600	      0.06540100	     -0.23373800	      1.18854500	      0.88622300	     -0.19254700	      1.18031600	      0.88598200	     -0.09349500	      1.19677300	      0.88646300	     -0.29160000	      1.03354100	      0.92399800	     -0.18690800	      1.03821100	      0.92244100	     -0.24145000	      1.02486800	      0.44486300	     -0.09513000	      1.27881200	      0.47486200	     -0.29237500	      1.02681800	      0.44681600	     -0.20132300	      1.24549300	      0.44683600	     -0.20534400	      0.79993500	      0.11136400	     -0.13724700	      1.29732300	      0.06517200	     -0.27152800	      0.83581700	      0.11504900	     -0.20096300	      1.30814600	      0.08135100	     -0.20756800	      1.08489400	      1.32954000	     -0.18002300	      1.18725500	      1.25528300	     -0.13803100	      1.18287000	      1.25750400	     -0.24456500	      1.16991600	      1.26758100	     -0.19554600	      1.22416500	      1.10064200	     -0.20029100	      1.20686900	      0.58172100	     -0.12675600	      1.31401700	      0.66564800	     -0.20187400	      1.13878500	      0.64791900	     -0.08936000	      1.25506800	      0.68323200	     -0.28122300	      1.11014600	      0.56727500	     -0.09290500	      1.28499800	      0.60127100	     -0.27197500	      0.85122300	      0.21981000	     -0.06098500	      1.25868000	      0.17845200	     -0.34135400	      0.86179900	      0.22407300	     -0.10153900	      1.26718600	      0.18536600	     -0.29975300	      0.90508800	      0.04232500	     -0.13763900	      1.41723100	      0.04219200	     -0.23825900	     46.10236703	    223.25294476	     -0.09506079	      0.92443085	      0.00000000	     -0.14262244	    -25.50750747	    220.97523745	      5.77478331	      1.29829333	      0.00000000	     -0.24028502	      0.00000000	      1.03924805	      0.00000000	      0.00000000	      0.15575281	      0.00000000	      1.13057935	      0.82915789	     -0.20439193	      1.12469602	      0.80986983	     -0.13931274	      1.12445092	      0.80937153	     -0.25678328	      1.02394998	      0.44674903	     -0.15008999	      1.25786388	      0.46876061	     -0.24243316	      0.81302273	      0.10567270	     -0.17300375	      1.28996563	      0.06540062	     -0.23373818	      1.18854499	      0.88622260	     -0.19254746	      1.18031645	      0.88598174	     -0.09349510	      1.19677341	      0.88646346	     -0.29159981	      1.03354120	      0.92399800	     -0.18690763	      1.03821075	      0.92244095	     -0.24144985	      1.02486801	      0.44486314	     -0.09513000	      1.27881229	      0.47486174	     -0.29237506	      1.02681816	      0.44681585	     -0.20132251	      1.24549317	      0.44683596	     -0.20534359	      0.79993516	      0.11136404	     -0.13724658	      1.29732311	      0.06517156	     -0.27152795	      0.83581722	      0.11504945	     -0.20096323	      1.30814576	      0.08135101	     -0.20756802	      1.08489418	      1.32954037	     -0.18002297	      1.18725538	      1.25528252	     -0.13803057	      1.18286979	      1.25750411	     -0.24456473	      1.16991615	      1.26758075	     -0.19554612	      1.22416496	      1.10064244	     -0.20029080	      1.20686889	      0.58172137	     -0.12675598	      1.31401658	      0.66564810	     -0.20187372	      1.13878524	      0.64791948	     -0.08935985	      1.25506806	      0.68323183	     -0.28122261	      1.11014628	      0.56727535	     -0.09290488	      1.28499842	      0.60127109	     -0.27197450	      0.85122317	      0.21980962	     -0.06098459	      1.25868046	      0.17845160	     -0.34135425	      0.86179888	      0.22407292	     -0.10153876	      1.26718616	      0.18536614	     -0.29975253	      0.90508795	      0.04232514	     -0.13763937	      1.41723108	      0.04219246	     -0.23825935
      0.89167000	      1.18728242	      0.87200976	     -0.19154797	     -1.46415553	      0.77494702	     -4.66882558	    -13.72541634	     -0.08301158	     -3.72303646	    -16.86327796	      8.49013449	     22.57002269	      1.51082365	      4.21030277	    -17.23766563	     -2.58916804	     -6.86818297	     -0.36151696	     10.48689354	      0.00000000	      0.00000000	      0.00000000	      0.00000000	      1.22855295	      0.87304488	     -0.09503494	      1.22697048	      0.86973016	     -0.29671015	      1.19827563	      0.87171662	     -0.19064995	      1.07855825	      0.92780235	     -0.17110506	      1.07785075	      0.92762711	     -0.22600660	      1.12505822	      0.82066697	     -0.13120361	      1.13581316	      0.82216685	     -0.26237151	      1.13043569	      0.82141691	     -0.19678756	      1.04045059	      0.43663799	     -0.07776667	      1.02811179	      0.43691268	     -0.18660627	      1.22117600	      0.55802166	     -0.12486272	      1.16233332	      0.62895258	     -0.08305671	      1.12755524	      0.55026112	     -0.08410784	      0.79051886	      0.11417185	     -0.13525887	      0.83556037	      0.10806467	     -0.19299311	      0.84254146	      0.21820075	     -0.05401048	      0.85686196	      0.22105904	     -0.09375708	      1.02548046	      0.45902733	     -0.14306068	      0.81516786	      0.12102333	     -0.17115781	      0.89145526	      0.04332219	     -0.10469712	      1.29853555	      0.46868429	     -0.30241311	      1.27182279	      0.45006352	     -0.19806498	      1.34787821	      0.66384448	     -0.22148953	      1.27629342	      0.68098787	     -0.29082895	      1.30464515	      0.59811697	     -0.28141285	      1.29619895	      0.05772048	     -0.28935887	      1.31342138	      0.07056122	     -0.22488983	      1.25107000	      0.17140715	     -0.35229097	      1.26386941	      0.17826660	     -0.31153434	      1.26824760	      0.47138096	     -0.24570476	      1.29526666	      0.07321443	     -0.24666767	      1.41962521	      0.03295246	     -0.27776844	      1.19629390	      1.26712190	     -0.13892839	      1.18796512	      1.26766140	     -0.24782444	      1.08815829	      1.31581280	     -0.18082002	      1.17601224	      1.27562490	     -0.19733522	      1.26144327	      1.12286429	     -0.20337631	      1.13875000	      0.82962400	     -0.20554100	      1.13269300	      0.81017000	     -0.14062800	      1.13239300	      0.80983800	     -0.25809900	      1.03142500	      0.44695700	     -0.14946300	      1.26371900	      0.46877300	     -0.24270400	      0.81593500	      0.10890500	     -0.17178200	      1.29076500	      0.06531600	     -0.23337000	      1.19667100	      0.88646900	     -0.19378400	      1.18848900	      0.88610500	     -0.09474700	      1.20485300	      0.88683400	     -0.29282000	      1.04174900	      0.92454700	     -0.18768200	      1.04631000	      0.92306200	     -0.24224000	      1.03246200	      0.44533100	     -0.09449600	      1.28465100	      0.47457600	     -0.29268800	      1.03462300	      0.44687300	     -0.20132700	      1.24999500	      0.44693500	     -0.20531700	      0.80272200	      0.11497400	     -0.13613200	      1.29823900	      0.06494300	     -0.27113600	      0.83900900	      0.11797100	     -0.19949100	      1.30886200	      0.08075700	     -0.20682200	      1.09136400	      1.32975500	     -0.18088100	      1.19444400	      1.25603200	     -0.13956200	      1.18940600	      1.25834100	     -0.24593500	      1.17674900	      1.26833800	     -0.19685800	      1.23188600	      1.10167800	     -0.20215400	      1.21492700	      0.58177200	     -0.12712200	      1.32127100	      0.66533000	     -0.20282900	      1.14698400	      0.64799500	     -0.08998000	      1.26269800	      0.68283600	     -0.28237900	      1.11825300	      0.56756400	     -0.09328000	      1.29157700	      0.60047000	     -0.27268200	      0.85519300	      0.22323700	     -0.06017600	      1.26126200	      0.17832200	     -0.34114800	      0.86566500	      0.22721100	     -0.10073700	      1.26964500	      0.18490000	     -0.29917400	      0.90594700	      0.04264400	     -0.13721000	      1.41793100	      0.04106800	     -0.23767100	     43.40752786	    194.83326606	      0.70543492	      0.92574707	      0.00000000	     -0.14298907	    -29.16167635	    255.61555878	      4.12437495	      1.30204810	      0.00000000	     -0.23970650	      0.00000000	      0.85430151	      0.00000000	      0.00000000	      0.23994312	      0.00000000	      1.13875008	      0.82962424	     -0.20554140	      1.13269329	      0.81016952	     -0.14062777	      1.13239336	      0.80983835	     -0.25809875	      1.03142524	      0.44695687	     -0.14946254	      1.26371896	      0.46877268	     -0.24270360	      0.81593466	      0.10890533	     -0.17178155	      1.29076540	      0.06531618	     -0.23337017	      1.19667101	      0.88646930	     -0.19378360	      1.18848884	      0.88610452	     -0.09474709	      1.20485306	      0.88683408	     -0.29282010	      1.04174948	      0.92454714	     -0.18768202	      1.04631031	      0.92306191	     -0.24223976	      1.03246152	      0.44533098	     -0.09449635	      1.28465128	      0.47457635	     -0.29268768	      1.03462255	      0.44687268	     -0.20132737	      1.24999535	      0.44693500	     -0.20531701	      0.80272239	      0.11497381	     -0.13613243	      1.29823864	      0.06494350	     -0.27113605	      0.83900887	      0.11797083	     -0.19949098	      1.30886245	      0.08075702	     -0.20682213	      1.09136391	      1.32975507	     -0.18088076	      1.19444418	      1.25603175	     -0.13956241	      1.18940616	      1.25834119	     -0.24593495	      1.17674863	      1.26833832	     -0.19685806	      1.23188639	      1.10167813	     -0.20215417	      1.21492684	      0.58177191	     -0.12712237	      1.32127070	      0.66533035	     -0.20282866	      1.14698398	      0.64799464	     -0.08997983	      1.26269794	      0.68283635	     -0.28237915	      1.11825323	      0.56756353	     -0.09327985	      1.29157662	      0.60047019	     -0.27268216	      0.85519290	      0.22323669	     -0.06017619	      1.26126158	      0.17832239	     -0.34114757	      0.86566532	      0.22721121	     -0.10073742	      1.26964462	      0.18489970	     -0.29917380	      0.90594715	      0.04264399	     -0.13721001	      1.41793072	      0.04106755	     -0.23767087
      0.90000000	      1.19534113	      0.87252283	     -0.19294839	     -1.54131122	      0.85226669	     -4.59148104	    -13.60679384	     -0.41798226	     -3.79465278	    -17.72745043	      7.34254665	     22.32204678	      1.77759924	      4.08027897	    -17.63560271	     -2.18882738	     -6.55567067	     -0.41055243	     10.69833540	      0.00000000	      0.00000000	      0.00000000	      0.00000000	      1.23673970	      0.87336950	     -0.09648837	      1.23488802	      0.87033627	     -0.29816572	      1.20633512	      0.87221387	     -0.19206523	      1.08671811	      0.92843123	     -0.17228538	      1.08593830	      0.92833298	     -0.22718613	      1.13312808	      0.82117908	     -0.13259337	      1.14371276	      0.82284640	     -0.26377309	      1.13842042	      0.82201274	     -0.19818323	      1.04870887	      0.43738560	     -0.07720223	      1.03619391	      0.43714186	     -0.18602178	      1.22932564	      0.55859150	     -0.12516492	      1.17053188	      0.62970438	     -0.08359991	      1.13577301	      0.55099987	     -0.08422222	      0.79379216	      0.11798032	     -0.13351706	      0.83865289	      0.11106487	     -0.19130087	      0.84745603	      0.22144337	     -0.05261433	      0.86175746	      0.22398919	     -0.09238903	      1.03377337	      0.45933126	     -0.14255463	      0.81848527	      0.12437728	     -0.16946952	      0.89232255	      0.04390218	     -0.10354477	      1.30419662	      0.46824040	     -0.30290547	      1.27756220	      0.45013799	     -0.19844617	      1.35488039	      0.66336858	     -0.22273708	      1.28327454	      0.68071428	     -0.29200439	      1.31113620	      0.59770383	     -0.28235748	      1.29661792	      0.05721884	     -0.28888682	      1.31412910	      0.06998259	     -0.22448030	      1.25284704	      0.17133719	     -0.35199656	      1.26581250	      0.17812327	     -0.31128016	      1.27411921	      0.47130610	     -0.24613758	      1.29596860	      0.07282130	     -0.24622991	      1.41998247	      0.03171592	     -0.27760252	      1.20337548	      1.26806149	     -0.14036094	      1.19449751	      1.26863383	     -0.24921343	      1.09483193	      1.31633386	     -0.18167800	      1.18276590	      1.27651711	     -0.19865976	      1.26879138	      1.12411224	     -0.20522699	      1.14681700	      0.83007300	     -0.20667000	      1.14075500	      0.81052800	     -0.14194300	      1.14032200	      0.81034400	     -0.25941400	      1.03950700	      0.44708900	     -0.14873600	      1.26947100	      0.46884900	     -0.24301100	      0.81925400	      0.11232600	     -0.17049800	      1.29134200	      0.06529200	     -0.23300700	      1.20477500	      0.88680800	     -0.19507500	      1.19670400	      0.88633000	     -0.09602800	      1.21284600	      0.88728600	     -0.29412300	      1.04986400	      0.92509500	     -0.18839800	      1.05431000	      0.92367100	     -0.24296100	      1.04063300	      0.44574800	     -0.09376400	      1.29036000	      0.47434500	     -0.29304800	      1.04304300	      0.44712900	     -0.20163100	      1.25488100	      0.44745700	     -0.20491000	      0.80589900	      0.11880400	     -0.13497400	      1.29885500	      0.06476300	     -0.27076300	      0.84269900	      0.12100500	     -0.19794300	      1.30900600	      0.08023500	     -0.20610200	      1.09784400	      1.33006300	     -0.18175200	      1.20153700	      1.25686900	     -0.14095600	      1.19613000	      1.25932100	     -0.24727100	      1.18354500	      1.26915800	     -0.19815500	      1.23969700	      1.10284500	     -0.20391100	      1.22338300	      0.58197900	     -0.12734600	      1.32848900	      0.66513800	     -0.20386100	      1.15554700	      0.64812100	     -0.09041800	      1.27023400	      0.68273100	     -0.28346200	      1.12679800	      0.56792300	     -0.09365000	      1.29821600	      0.60007500	     -0.27320100	      0.85957400	      0.22685500	     -0.05932600	      1.26344100	      0.17826500	     -0.34091400	      0.86996300	      0.23058800	     -0.09992100	      1.27155600	      0.18475400	     -0.29839300	      0.90692000	      0.04301000	     -0.13684800	      1.41845000	      0.04025400	     -0.23719400	     39.77868448	    165.13039163	      1.59022700	      0.92723828	      0.00000000	     -0.14341525	    -31.41471910	    282.07655979	      1.41452214	      1.30489331	      0.00000000	     -0.23904407	      0.00000000	      0.69121869	      0.00000000	      0.00000000	      0.41023694	      0.00000000	      1.14681745	      0.83007324	     -0.20666969	      1.14075506	      0.81052750	     -0.14194281	      1.14032185	      0.81034398	     -0.25941369	      1.03950655	      0.44708899	     -0.14873619	      1.26947081	      0.46884859	     -0.24301080	      0.81925422	      0.11232650	     -0.17049812	      1.29134238	      0.06529170	     -0.23300658	      1.20477474	      0.88680828	     -0.19507548	      1.19670391	      0.88633037	     -0.09602751	      1.21284556	      0.88728625	     -0.29412347	      1.04986393	      0.92509538	     -0.18839779	      1.05431008	      0.92367065	     -0.24296065	      1.04063332	      0.44574755	     -0.09376409	      1.29035985	      0.47434515	     -0.29304764	      1.04304266	      0.44712853	     -0.20163077	      1.25488114	      0.44745719	     -0.20490955	      0.80589920	      0.11880391	     -0.13497435	      1.29885507	      0.06476288	     -0.27076274	      0.84269929	      0.12100460	     -0.19794296	      1.30900586	      0.08023520	     -0.20610221	      1.09784400	      1.33006263	     -0.18175218	      1.20153654	      1.25686872	     -0.14095643	      1.19613004	      1.25932133	     -0.24727131	      1.18354535	      1.26915801	     -0.19815484	      1.23969650	      1.10284543	     -0.20391072	      1.22338283	      0.58197856	     -0.12734577	      1.32848859	      0.66513771	     -0.20386116	      1.15554738	      0.64812058	     -0.09041760	      1.27023387	      0.68273062	     -0.28346223	      1.12679791	      0.56792277	     -0.09364968	      1.29821622	      0.60007453	     -0.27320135	      0.85957396	      0.22685522	     -0.05932634	      1.26344061	      0.17826490	     -0.34091383	      0.86996347	      0.23058783	     -0.09992057	      1.27155602	      0.18475389	     -0.29839292	      0.90691984	      0.04300998	     -0.13684818	      1.41845000	      0.04025447	     -0.23719414
